<?xml version="1.0" standalone="no"?>
<!DOCTYPE svg PUBLIC "-//W3C//DTD SVG 20010904//EN"
 "http://www.w3.org/TR/2001/REC-SVG-20010904/DTD/svg10.dtd">
<svg version="1.0" xmlns="http://www.w3.org/2000/svg"
 width="489.000000pt" height="489.000000pt" viewBox="0 0 489.000000 489.000000"
 preserveAspectRatio="xMidYMid meet">
<metadata>
Created by potrace 1.11, written by Peter Selinger 2001-2013
</metadata>
<g transform="translate(0.000000,489.000000) scale(0.100000,-0.100000)"
fill="#000000" stroke="none">
<path d="M2308 4885 c-2 -1 -25 -5 -53 -8 -59 -7 -114 -17 -135 -24 -8 -3 -27
-7 -43 -9 -34 -5 -127 -36 -192 -65 -27 -12 -54 -23 -60 -25 -5 -1 -122 -56
-258 -123 -137 -67 -252 -121 -258 -121 -5 0 -9 -4 -9 -10 0 -5 -3 -9 -7 -8
-12 4 -73 -23 -73 -32 0 -3 -6 -7 -13 -7 -6 0 -55 -20 -107 -46 -221 -106
-336 -160 -345 -161 -24 -4 -95 -39 -95 -48 0 -5 -4 -6 -10 -3 -5 3 -10 1 -10
-5 0 -6 -4 -9 -9 -6 -5 3 -46 -21 -91 -53 -277 -198 -424 -454 -432 -753 -2
-77 6 -218 16 -278 3 -14 7 -59 11 -101 3 -42 7 -85 9 -96 2 -11 7 -53 10 -95
4 -41 9 -85 11 -97 2 -11 6 -58 10 -104 3 -45 7 -93 9 -107 3 -14 7 -59 11
-100 3 -41 8 -88 10 -105 6 -42 15 -130 21 -195 10 -118 15 -176 19 -200 2
-14 6 -61 10 -105 4 -44 9 -96 11 -115 7 -49 15 -132 16 -150 1 -22 27 -153
35 -170 3 -8 7 -21 9 -28 7 -35 60 -154 96 -217 39 -67 50 -82 101 -149 34
-44 160 -177 164 -173 2 3 19 -10 38 -27 43 -39 202 -139 221 -139 8 0 12 -3
9 -5 -5 -5 196 -121 206 -119 3 1 13 -6 23 -16 10 -9 21 -15 26 -12 5 3 10 1
12 -4 1 -5 35 -26 73 -46 39 -21 94 -51 123 -67 28 -16 52 -26 52 -21 0 4 4 3
8 -3 10 -15 202 -117 202 -108 0 4 6 0 13 -11 8 -10 19 -15 25 -11 7 4 12 3
12 -2 0 -26 308 -152 411 -167 24 -4 47 -8 50 -11 12 -7 151 -16 254 -17 142
0 294 17 355 40 8 4 18 5 22 5 18 -4 169 54 274 104 62 30 118 54 124 54 5 0
10 5 10 10 0 6 5 10 11 10 19 0 199 91 199 101 0 4 6 6 13 3 7 -2 23 5 35 16
12 11 22 19 22 16 0 -6 80 37 188 101 41 24 78 43 83 43 5 0 9 4 9 9 0 5 12
14 28 20 35 14 222 134 298 191 75 56 224 201 218 212 -3 4 2 8 10 8 9 0 16 6
16 14 0 8 3 16 8 18 20 9 159 234 161 261 0 4 9 27 20 51 41 94 58 179 77 381
10 111 13 147 18 195 3 25 8 74 11 110 4 36 8 79 10 95 2 17 7 62 10 100 4 39
8 84 11 100 2 17 6 57 9 90 5 60 9 106 21 220 14 136 24 243 30 305 2 25 6 70
10 100 3 30 7 69 9 85 2 17 6 62 11 100 14 132 5 337 -16 359 -5 5 -6 14 -3
21 2 7 -3 27 -11 44 -9 17 -16 34 -16 38 0 20 -23 73 -31 73 -6 0 -8 4 -4 10
16 26 -195 310 -231 310 -9 0 -12 5 -9 11 4 6 -2 13 -14 16 -12 3 -21 9 -21
13 0 24 -295 193 -337 193 -7 0 -13 3 -13 7 0 4 -18 13 -40 20 -22 7 -40 18
-40 23 0 6 -2 8 -5 5 -3 -3 -35 10 -72 28 -36 19 -72 34 -79 34 -8 0 -14 5
-14 11 0 6 -7 9 -15 5 -8 -3 -15 -2 -15 3 0 6 -110 63 -130 67 -6 1 -310 148
-412 200 -38 18 -68 31 -68 28 0 -3 -7 2 -16 11 -9 9 -23 14 -30 11 -8 -3 -14
-2 -14 3 0 10 -99 55 -117 54 -7 0 -13 3 -13 7 0 8 -46 23 -53 18 -2 -2 -10 2
-18 8 -8 6 -27 15 -44 19 -45 12 -45 12 -47 15 -5 3 -40 10 -122 25 -21 4 -48
9 -60 12 -23 5 -332 13 -338 8z m277 -209 c74 -8 143 -22 205 -40 30 -9 62
-18 70 -19 8 -1 17 -4 20 -7 3 -3 39 -21 80 -39 41 -19 136 -63 210 -99 253
-121 325 -155 330 -156 3 -1 40 -18 82 -39 164 -80 222 -105 229 -101 4 2 9
-3 13 -11 3 -8 11 -15 19 -15 7 0 55 -20 105 -45 50 -25 94 -45 97 -45 3 0 33
-13 65 -29 32 -16 62 -26 66 -23 4 4 4 2 1 -4 -4 -7 6 -17 23 -24 17 -7 30
-16 30 -21 0 -4 8 -10 18 -13 32 -10 164 -148 207 -216 58 -91 102 -203 111
-280 6 -61 4 -193 -6 -285 -10 -90 -14 -130 -25 -245 -2 -19 -6 -66 -9 -103
-3 -38 -8 -85 -10 -105 -3 -20 -7 -66 -11 -102 -3 -36 -8 -81 -10 -100 -3 -19
-7 -69 -10 -110 -3 -41 -8 -86 -10 -100 -2 -14 -6 -60 -10 -103 -3 -43 -8 -86
-10 -95 -1 -9 -6 -57 -10 -106 -4 -50 -8 -97 -10 -105 -1 -9 -6 -52 -10 -96
-3 -44 -8 -93 -11 -110 -2 -16 -6 -59 -9 -95 -2 -36 -12 -92 -21 -125 -9 -33
-17 -67 -18 -75 0 -8 -3 -17 -6 -20 -3 -3 -14 -25 -25 -50 -10 -25 -30 -63
-44 -85 -13 -22 -24 -46 -24 -52 0 -7 -2 -11 -5 -8 -3 2 -23 -21 -45 -53 -44
-63 -150 -172 -212 -217 -22 -17 -42 -32 -45 -35 -3 -4 -22 -16 -43 -29 -21
-13 -45 -30 -54 -39 -9 -10 -17 -15 -17 -13 -1 6 -59 -31 -68 -44 -4 -5 -8 -7
-8 -2 0 6 -46 -19 -60 -33 -9 -9 -84 -51 -102 -57 -10 -3 -18 -9 -18 -13 0 -4
-18 -15 -40 -25 -22 -10 -40 -23 -40 -28 0 -6 -3 -8 -6 -4 -7 6 -117 -52 -122
-65 -2 -5 -8 -6 -13 -2 -5 3 -9 0 -9 -5 0 -6 -3 -10 -7 -9 -5 1 -51 -20 -103
-47 -52 -27 -97 -50 -100 -50 -24 -6 -90 -39 -90 -44 0 -4 -6 -8 -13 -8 -7 0
-40 -13 -73 -28 -32 -16 -63 -30 -69 -31 -5 -1 -32 -11 -60 -22 -99 -39 -220
-56 -390 -56 -164 0 -245 6 -302 23 -18 5 -33 7 -33 3 0 -3 -5 -1 -12 6 -7 7
-18 12 -26 12 -21 0 -143 50 -185 77 -20 13 -37 20 -37 17 0 -4 -6 -1 -14 5
-24 20 -146 82 -146 74 0 -4 -4 -3 -8 3 -10 14 -142 85 -142 76 0 -4 -4 -2 -8
4 -4 6 -52 34 -107 64 -55 29 -118 63 -141 76 -22 13 -44 21 -49 16 -4 -4 -5
-2 -2 4 3 6 -10 18 -31 28 -78 37 -342 200 -383 236 -24 21 -47 36 -52 33 -4
-2 -6 -1 -5 4 2 4 -17 28 -41 53 -58 60 -123 152 -163 231 -18 35 -33 66 -33
69 -1 3 -11 34 -22 71 -20 60 -27 103 -39 234 -4 54 -10 110 -19 190 -3 28 -7
75 -10 105 -3 30 -7 75 -10 100 -2 25 -7 68 -10 95 -8 90 -16 159 -20 200 -3
22 -7 63 -9 90 -6 77 -17 187 -22 220 -3 17 -6 53 -8 80 -2 28 -6 75 -10 105
-9 80 -16 147 -22 215 -3 33 -8 76 -10 95 -17 145 -19 218 -10 311 7 63 39
171 62 207 8 12 12 27 9 32 -3 6 -2 10 3 10 6 0 22 19 35 43 24 40 126 152
172 187 78 60 131 90 273 151 17 8 32 17 32 20 0 3 6 6 13 6 6 0 64 25 127 55
63 30 130 61 148 69 17 7 32 18 32 22 0 5 5 5 10 2 6 -3 10 -2 10 3 0 5 6 9
13 9 6 0 56 21 110 47 53 25 100 45 103 45 4 0 10 3 13 8 3 4 31 19 61 33 30
14 58 29 62 35 4 5 8 7 8 2 0 -7 100 40 110 52 3 3 14 7 25 9 11 2 25 9 30 15
6 7 17 13 26 15 9 1 45 16 80 33 66 32 152 68 179 75 8 2 41 10 74 19 68 19
99 24 181 32 33 3 61 6 62 7 4 3 159 -3 208 -8z"/>
<path d="M1848 3933 c-25 -28 -38 -60 -38 -88 0 -25 28 -77 55 -100 6 -5 49
-53 95 -105 47 -52 97 -108 112 -125 118 -132 121 -138 115 -192 -3 -27 -8
-55 -11 -63 -3 -8 -7 -28 -9 -45 -3 -16 -8 -41 -11 -55 -3 -14 -8 -36 -10 -50
-3 -14 -10 -50 -16 -80 -6 -30 -14 -68 -16 -85 -3 -16 -12 -59 -20 -94 -8 -35
-12 -66 -10 -68 2 -3 -2 -21 -10 -40 -9 -19 -13 -37 -10 -40 2 -3 1 -15 -4
-27 -4 -13 -11 -40 -14 -62 -4 -21 -11 -55 -16 -74 -10 -37 -20 -90 -25 -127
-2 -12 -8 -37 -14 -56 -7 -19 -11 -39 -10 -43 1 -5 0 -16 -3 -24 -8 -20 -47
-204 -52 -245 -2 -11 -8 -38 -14 -60 -6 -22 -14 -53 -16 -70 -7 -34 -8 -40
-32 -150 -10 -44 -18 -90 -18 -102 -1 -13 -5 -23 -10 -23 -5 0 -7 -3 -4 -6 3
-3 0 -26 -6 -52 -11 -41 -13 -78 -7 -130 2 -18 103 -112 113 -106 5 3 7 2 6
-3 -4 -13 188 -173 197 -165 5 4 5 2 2 -4 -4 -7 3 -19 16 -27 12 -8 32 -25 45
-36 12 -12 22 -20 22 -18 0 2 21 -16 46 -39 87 -81 166 -105 243 -72 48 20
107 66 103 80 -1 4 2 7 6 6 11 -4 72 48 72 61 0 6 4 10 8 9 5 -2 33 18 63 43
30 26 92 79 137 118 46 39 89 71 95 71 5 0 8 2 5 5 -3 3 10 21 28 39 43 43 44
75 5 262 -17 76 -32 150 -35 164 -2 14 -18 88 -35 165 -16 77 -32 151 -35 165
-8 40 -24 118 -46 220 -11 52 -23 106 -25 120 -6 29 -7 34 -35 165 -12 55 -23
109 -25 120 -3 11 -14 63 -25 115 -12 52 -23 108 -25 124 -2 15 -7 36 -10 46
-3 10 -8 29 -10 42 -3 13 -12 59 -22 103 -29 141 -28 149 42 223 33 35 59 69
57 74 -1 5 2 7 7 4 5 -4 13 0 18 8 8 14 122 144 159 180 68 67 88 123 66 177
-13 33 -73 62 -111 54 -29 -6 -105 -78 -94 -89 4 -3 -2 -6 -12 -6 -10 0 -16
-2 -13 -5 3 -3 -11 -23 -31 -43 -20 -21 -49 -54 -66 -73 -16 -19 -46 -53 -65
-75 -80 -92 -119 -139 -120 -146 0 -4 -11 -19 -24 -33 -28 -30 -34 -56 -30
-122 2 -38 32 -191 59 -304 2 -9 6 -34 9 -55 4 -22 11 -55 16 -74 8 -33 36
-164 47 -220 2 -14 9 -45 15 -70 6 -25 12 -55 13 -67 2 -11 6 -29 9 -40 3 -10
8 -36 12 -58 3 -22 8 -43 10 -46 2 -3 6 -21 9 -40 3 -19 11 -52 16 -74 5 -22
11 -49 13 -60 7 -36 24 -118 56 -265 18 -80 34 -158 37 -175 2 -16 11 -57 19
-90 8 -33 16 -69 18 -80 2 -11 7 -39 11 -62 8 -45 -1 -57 -106 -145 -24 -20
-55 -46 -69 -58 -14 -12 -47 -40 -74 -63 -28 -23 -61 -52 -75 -65 -40 -36 -85
-72 -94 -73 -5 0 -26 14 -46 33 -21 18 -58 49 -82 70 -24 20 -54 44 -65 55
-12 10 -65 54 -117 98 -52 44 -99 89 -105 100 -6 14 -3 44 10 100 10 44 20 93
23 110 2 16 4 30 5 30 2 0 8 27 15 65 3 14 11 55 19 91 8 36 17 77 20 90 3 20
94 444 113 534 4 17 7 32 8 35 0 3 4 21 8 40 9 46 13 62 32 150 9 41 18 86 20
100 2 14 4 25 5 25 1 0 3 7 5 16 1 10 10 49 19 89 9 40 14 75 11 78 -2 3 -1
10 4 16 5 6 11 25 14 41 3 17 10 50 15 75 42 185 33 234 -65 338 -18 19 -33
37 -33 40 0 3 -108 127 -220 252 -8 9 -29 33 -46 53 -18 19 -41 40 -52 46 -32
17 -87 13 -104 -6z"/>
</g>
</svg>
