<?xml version="1.0" standalone="no"?>
<!DOCTYPE svg PUBLIC "-//W3C//DTD SVG 20010904//EN"
 "http://www.w3.org/TR/2001/REC-SVG-20010904/DTD/svg10.dtd">
<svg version="1.0" xmlns="http://www.w3.org/2000/svg"
 width="435.000000pt" height="435.000000pt" viewBox="0 0 435.000000 435.000000"
 preserveAspectRatio="xMidYMid meet">
<metadata>
Created by potrace 1.11, written by Peter Selinger 2001-2013
</metadata>
<g transform="translate(0.000000,435.000000) scale(0.100000,-0.100000)"
fill="#000000" stroke="none">
<path d="M1970 4213 c-139 -24 -248 -67 -590 -231 -179 -85 -416 -197 -528
-248 -239 -109 -313 -156 -414 -262 -127 -133 -199 -282 -218 -456 -8 -70 -4
-139 25 -432 20 -192 53 -531 75 -754 47 -479 52 -509 94 -622 68 -180 206
-361 358 -465 75 -52 371 -221 583 -333 464 -245 543 -271 825 -272 224 -1
346 28 575 135 255 119 527 269 735 404 302 197 489 481 515 783 4 41 24 253
46 470 22 217 53 530 70 695 33 329 32 376 -8 515 -53 184 -170 341 -346 459
-27 18 -171 90 -320 161 -150 70 -386 182 -525 248 -276 132 -354 164 -482
194 -114 26 -352 32 -470 11z m-175 -770 c93 -100 240 -270 288 -332 40 -52
42 -58 41 -120 0 -58 -62 -366 -209 -1046 -98 -452 -115 -537 -115 -563 0 -26
21 -47 162 -168 89 -77 172 -147 184 -157 23 -18 24 -17 196 131 95 82 179
156 187 166 18 21 16 33 -59 376 -28 129 -69 321 -91 425 -22 105 -56 264 -75
355 -110 518 -109 514 -65 581 39 59 327 386 357 405 50 33 124 -15 124 -80 0
-41 -4 -46 -181 -243 -130 -145 -149 -171 -149 -201 0 -31 15 -110 105 -537
20 -93 49 -233 65 -310 16 -77 59 -279 95 -449 36 -170 65 -326 65 -345 0 -47
-12 -60 -219 -237 -269 -231 -288 -243 -365 -223 -49 12 -69 27 -315 237 -153
131 -192 170 -200 197 -10 36 -4 65 109 590 143 664 223 1071 216 1098 -3 12
-67 91 -143 176 -193 215 -196 219 -189 261 7 44 47 80 88 80 25 0 42 -12 93
-67z"/>
</g>
</svg>
