<?xml version="1.0" standalone="no"?>
<!DOCTYPE svg PUBLIC "-//W3C//DTD SVG 20010904//EN"
 "http://www.w3.org/TR/2001/REC-SVG-20010904/DTD/svg10.dtd">
<svg version="1.0" xmlns="http://www.w3.org/2000/svg"
 width="420.000000pt" height="420.000000pt" viewBox="0 0 420.000000 420.000000"
 preserveAspectRatio="xMidYMid meet">
<metadata>
Created by potrace 1.11, written by Peter Selinger 2001-2013
</metadata>
<g transform="translate(0.000000,420.000000) scale(0.100000,-0.100000)"
fill="#000000" stroke="none">
<path d="M0 2100 l0 -2100 2100 0 2100 0 0 2100 0 2100 -2100 0 -2100 0 0
-2100z m2243 1709 c148 -22 228 -53 602 -234 217 -105 494 -235 501 -235 20 0
155 -101 207 -154 103 -107 165 -230 188 -377 9 -62 4 -141 -50 -692 -34 -342
-68 -657 -75 -699 -35 -194 -167 -396 -344 -527 -163 -119 -634 -378 -816
-446 -193 -73 -474 -79 -666 -15 -107 35 -679 339 -845 449 -173 113 -311 310
-354 502 -6 25 -40 342 -76 704 -60 601 -65 666 -54 734 28 186 127 344 287
458 34 25 124 73 200 107 75 35 279 131 452 214 173 83 343 160 378 171 135
46 322 62 465 40z"/>
<path d="M2015 3670 c-154 -14 -183 -25 -685 -265 -135 -64 -290 -137 -344
-162 -210 -94 -317 -202 -368 -367 -18 -60 -20 -84 -15 -195 4 -69 11 -171 17
-226 6 -55 32 -316 59 -580 52 -512 57 -536 123 -648 95 -161 190 -228 729
-514 255 -136 302 -156 411 -173 97 -16 300 -8 383 15 185 50 716 333 885 472
119 98 221 250 253 378 8 33 18 98 21 145 4 47 11 121 16 165 5 44 14 130 20
190 5 61 26 272 46 470 40 412 39 447 -22 574 -26 56 -53 92 -109 148 -83 81
-49 63 -670 356 -417 196 -438 204 -635 221 -19 1 -71 0 -115 -4z m-148 -641
c170 -189 193 -222 193 -274 0 -23 -4 -64 -10 -91 -11 -57 -66 -320 -109 -519
-106 -498 -141 -667 -141 -680 0 -16 11 -26 178 -169 70 -60 117 -94 125 -89
42 25 287 247 287 260 0 9 -34 176 -76 372 -157 742 -184 874 -184 915 0 32 8
54 33 88 50 70 249 295 274 308 50 28 112 -33 92 -89 -5 -13 -65 -86 -134
-162 -91 -101 -125 -146 -125 -165 0 -28 -2 -20 159 -782 84 -395 108 -528
101 -546 -10 -28 -349 -322 -387 -337 -38 -14 -75 -11 -111 11 -35 22 -338
276 -360 303 -8 9 -14 31 -15 49 0 27 62 331 128 628 51 230 135 649 135 676
0 14 -43 71 -112 149 -174 196 -179 205 -133 250 46 47 64 37 192 -106z"/>
</g>
</svg>
