<?xml version="1.0" encoding="utf-8"?>
<!-- Generator: Adobe Illustrator 19.2.1, SVG Export Plug-In . SVG Version: 6.00 Build 0)  -->
<svg version="1.1" id="Vrstva_1" xmlns="http://www.w3.org/2000/svg" xmlns:xlink="http://www.w3.org/1999/xlink" x="0px" y="0px"
	 viewBox="0 0 481.9 141.1" style="enable-background:new 0 0 481.9 141.1;" xml:space="preserve">
<style type="text/css">
	.st0{fill:#74B829;}
	.st1{fill:#6E7072;}
</style>
<path class="st0" d="M105.6,25.2c-0.8-0.4-5.7-2.7-12.7-6l-7-3.4l0,0l-6.5-3.1c-5-2.4-10.3-3.6-15.8-3.6H63
	c-5.5,0-10.8,1.2-15.8,3.6l-13.5,6.5c-6.7,3.2-11.5,5.4-12.5,5.9C14.8,27.3,3.1,35.3,4.1,50l4.5,45c0.1,0.5,1.5,13.5,15,21.3
	c9.5,5.5,13,7.3,17.4,9.6l0.5,0.3c1.1,0.6,2.3,1.2,3.7,1.9l2.5,1.3c1.7,0.9,7.2,3.5,15.1,3.5l0.5,0l0.7,0c8.2,0,13.8-2.7,15.2-3.5
	l2.6-1.2c3.9-1.8,11.7-5.6,21.6-12c13-8.3,14.7-20.5,14.8-21.1l3.9-39.2l0.6-6C123.4,35.3,111.7,27.3,105.6,25.2z M117.2,49.6
	l-4.4,44.9c-0.1,0.4-1.5,10.3-12.4,17.3c-13,8.4-22.3,12.3-23.3,12.7l-0.4,0.2c-1.3,0.7-5.9,2.9-12.8,2.9l-0.7,0l-0.5,0
	c-6.9,0-11.5-2.2-12.7-2.9l-0.3-0.2c-2.3-1.2-4.2-2.2-5.8-3l-0.5-0.3c-4.4-2.3-7.8-4-17.2-9.5C15,105.3,13.8,95,13.8,94.5L9.3,49.6
	c-0.8-11.4,8.5-17.7,13.6-19.4l0.4-0.2c1.1-0.5,5.9-2.8,12.7-6l13.6-6.5c4.3-2.1,8.8-3.1,13.5-3.1h0.4c4.5,0,8.8,0.9,12.8,2.8
	L90.6,24c7,3.3,12,5.6,13,6.1C108.6,31.9,117.9,38.2,117.2,49.6z"/>
<path class="st0" d="M78.7,36.9c0.3-0.4,0.4-0.9,0.4-1.4c0-1.4-1.2-2.6-2.6-2.6c-0.9,0-1.6,0.4-2.1,1.1l0,0
	c-4.3,4.8-9.1,10.3-9.7,11.4c-0.6,1.1-0.5,2.9-0.2,4.1c3.1,14.9,6.3,29.9,9.3,43.9c0.1,0.7,0,1-0.5,1.4c-2.6,2.2-5.1,4.4-7.7,6.6
	l-2.1,1.8l-0.4,0.2l-0.3-0.2l-2.3-2c-2.5-2.1-4.9-4.2-7.4-6.3c-0.5-0.4-0.6-0.7-0.5-1.4c3-14,6.2-29,9.3-43.9c0.3-1.3,0.4-3-0.2-4.1
	c-0.4-0.8-3.8-4.9-9.8-11.5c-0.5-0.7-1.2-1.2-2.1-1.2c-1.4,0-2.6,1.2-2.6,2.6c0,0.3,0,0.6,0.1,0.9l0.2,0.5c0.1,0.1,0.3,0.3,0.4,0.4
	c0,0,0,0,0,0.1c3.9,4.3,8,9,8.4,9.5c0.6,0.6,0.7,1.2,0.5,2.1L54.4,61c-2.3,11-4.7,22-7,33c-0.3,1.6,0,2.7,1.2,3.7
	c3.1,2.6,6.2,5.3,9.3,7.9l1.4,1.2c1,0.9,2,1.6,3.7,1.8l0.3,0l0.3,0c1.6-0.2,2.6-0.9,3.6-1.8l1.1-1c3.1-2.7,6.3-5.4,9.5-8.1
	c1.2-1,1.5-2.1,1.2-3.7c-2.2-10.4-4.4-20.9-6.6-31.3l-2.9-13.8c-0.2-0.9,0-1.6,0.5-2.1c0.6-0.6,5.3-5.9,8.4-9.3
	c0-0.1,0.1-0.1,0.2-0.2"/>
<g>
	<path class="st1" d="M189.8,54.3c-5.3,0.1-9.1,2.3-11.1,6.5c-1.6-4.1-5.2-6.5-10.2-6.5c-4.7,0.1-8.2,1.8-10.3,5.1v-5H153v29.3h5.1
		V69.3c0-6,3.4-9.8,8.8-10c4.7,0,7.4,2.8,7.4,7.5v16.8h5.2V69.3c0-6,3.4-9.8,8.8-10c4.7,0,7.4,2.8,7.4,7.5v16.8h5.1V65.8
		C200.8,58.7,196.6,54.3,189.8,54.3z"/>
	<path class="st1" d="M220.5,54.4c-8.7,0-14.8,6.1-14.8,14.7c0,8.7,6.1,14.8,14.8,14.8c8.7,0,14.8-6.1,14.8-14.8
		C235.4,60.4,229.3,54.4,220.5,54.4z M220.5,79.2c-5.7,0-9.7-4.1-9.7-10.1c0-5.9,4-10,9.7-10c5.7,0,9.7,4.1,9.7,10
		C230.2,75.1,226.2,79.2,220.5,79.2z"/>
	<path class="st1" d="M263,59.4c-2.3-3.3-6-5.1-10.6-5.1c-8.3,0-14.1,6.1-14.1,14.8c0,8.8,5.8,14.9,14.1,14.9
		c4.5,0,8.2-1.8,10.6-5.1v4.9h5.1V42.9H263V59.4z M253.3,79.3c-5.8,0-9.8-4.1-9.8-10.1c0-6,4-10.2,9.8-10.2c5.6,0,9.7,4.3,9.7,10.2
		C263,75.1,259,79.3,253.3,79.3z"/>
	<path class="st1" d="M292.9,54.3c-4.5,0-8.1,1.8-10.4,5.1v-4.9h-5.1v39.7h5.1V78.8c2.3,3.3,6,5.1,10.6,5.1c8.2,0,14-6.1,14-14.7
		C307,60.4,301.2,54.3,292.9,54.3z M292.2,59c5.6,0,9.6,4.2,9.6,10.1c0,5.9-4,10.1-9.6,10.1c-5.7,0-9.7-4.1-9.7-10.1
		S286.5,59,292.2,59z"/>
	<path class="st1" d="M318,59.4v-4.9h-5.1v29.3h5.1l0-15.5c0.5-5.5,4-8.8,9.4-8.8l0.7,0v-5.2l-0.5,0C323.4,54.4,320.1,56.1,318,59.4
		z"/>
	<path class="st1" d="M343.9,54.4c-8.5,0-14.5,6.1-14.5,14.8c0,8.7,6,14.8,14.6,14.8c4.8,0,8.9-1.7,11.7-4.9l0.3-0.3l-2.9-3.2
		l-0.3,0.4c-2.1,2.2-5,3.4-8.4,3.4c-5.1,0-8.8-3.2-9.7-8.1h23l0-0.5c0.2-5.4-1.1-9.8-3.8-12.7C351.4,55.6,348.1,54.4,343.9,54.4z
		 M334.5,66.8c0.8-4.8,4.4-7.9,9.4-7.9c5.1,0,8.5,3,9,7.9H334.5z"/>
	<path class="st1" d="M378.9,54.3c-4.8,0.1-8.3,1.7-10.5,5v-4.9h-5.1v29.3h5.1V68.1c0.5-5.4,3.9-8.6,9-8.7c4.8,0,7.5,2.7,7.5,7.5
		v16.8h5.1V65.8C390.1,58.6,385.9,54.3,378.9,54.3z"/>
	<path class="st1" d="M409.6,54.4c-8.5,0-14.5,6.1-14.5,14.8c0,8.7,6,14.8,14.6,14.8c4.8,0,8.9-1.7,11.7-4.9l0.3-0.3l-2.9-3.2
		l-0.3,0.4c-2.1,2.2-5,3.4-8.4,3.4c-5.1,0-8.8-3.2-9.7-8.1h23l0-0.5c0.2-5.4-1.1-9.8-3.8-12.7C417.1,55.6,413.8,54.4,409.6,54.4z
		 M400.2,66.8c0.8-4.8,4.4-7.9,9.4-7.9c5.1,0,8.5,3,9,7.9H400.2z"/>
	<path class="st1" d="M449.3,68.9c0,6-3.4,9.8-8.8,9.9c-4.6,0-7.4-2.8-7.4-7.5V54.5H428v17.9c0,7.1,4.2,11.5,11.1,11.5h0h0
		c4.7,0,8.2-1.8,10.3-5.1v5h5.1V54.5h-5.1V68.9z"/>
	<path class="st1" d="M477.9,54.3c-4.3,0-7.6,1.8-9.7,5.1v-4.9h-5.1v29.3h5.1V68.3c0.5-5.5,4-8.8,9.4-8.8l0.7,0v-5.2L477.9,54.3z"/>
</g>
</svg>
