<?xml version="1.0" encoding="UTF-8" standalone="no"?>
<!-- Created with Inkscape (http://www.inkscape.org/) -->

<svg
   xmlns:dc="http://purl.org/dc/elements/1.1/"
   xmlns:cc="http://creativecommons.org/ns#"
   xmlns:rdf="http://www.w3.org/1999/02/22-rdf-syntax-ns#"
   xmlns:svg="http://www.w3.org/2000/svg"
   xmlns="http://www.w3.org/2000/svg"
   xmlns:sodipodi="http://sodipodi.sourceforge.net/DTD/sodipodi-0.dtd"
   xmlns:inkscape="http://www.inkscape.org/namespaces/inkscape"
   width="85.81015"
   height="26.299337"
   id="svg2"
   inkscape:label="Pozadí"
   version="1.1"
   inkscape:version="0.47 r22583"
   sodipodi:docname="Nový dokument 14">
  <defs
     id="defs3185">
    <inkscape:perspective
       sodipodi:type="inkscape:persp3d"
       inkscape:vp_x="0 : 526.18109 : 1"
       inkscape:vp_y="0 : 1000 : 0"
       inkscape:vp_z="744.09448 : 526.18109 : 1"
       inkscape:persp3d-origin="372.04724 : 350.78739 : 1"
       id="perspective3191" />
    <inkscape:perspective
       id="perspective3177"
       inkscape:persp3d-origin="0.5 : 0.33333333 : 1"
       inkscape:vp_z="1 : 0.5 : 1"
       inkscape:vp_y="0 : 1000 : 0"
       inkscape:vp_x="0 : 0.5 : 1"
       sodipodi:type="inkscape:persp3d" />
  </defs>
  <sodipodi:namedview
     id="base"
     pagecolor="#ffffff"
     bordercolor="#666666"
     borderopacity="1.0"
     inkscape:pageopacity="0.0"
     inkscape:pageshadow="2"
     inkscape:zoom="1.979899"
     inkscape:cx="78.963593"
     inkscape:cy="-22.846209"
     inkscape:document-units="px"
     inkscape:current-layer="layer1"
     showgrid="false"
     inkscape:window-width="974"
     inkscape:window-height="484"
     inkscape:window-x="687"
     inkscape:window-y="532"
     inkscape:window-maximized="0" />
  <metadata
     id="metadata3188">
    <rdf:RDF>
      <cc:Work
         rdf:about="">
        <dc:format>image/svg+xml</dc:format>
        <dc:type
           rdf:resource="http://purl.org/dc/dcmitype/StillImage" />
        <dc:title></dc:title>
      </cc:Work>
    </rdf:RDF>
  </metadata>
  <g
     inkscape:label="Vrstva 1"
     inkscape:groupmode="layer"
     id="layer1"
     transform="translate(-134.23778,-153.49823)">
    <g
       style="display:inline"
       transform="matrix(0.20414466,0,0,0.20414466,138.11698,-138.73043)"
       id="g4881">
      <path
         style="fill:#ee1623;fill-opacity:1"
         d="m -5.0718594,1551.4357 c -8.2481056,-8.5573 -13.8869506,-23.558 -13.9302136,-37.0578 -0.01948,-6.0779 1.766086,-17.6841 3.121988,-20.2929 1.893372,-3.6429 34.504794,-11.5959 50.860648,-12.4035 l 9.5,-0.469 -5.589007,2.9764 c -14.269353,7.599 -16.030503,17.517 -4.174491,23.5088 6.197419,3.1321 10.263498,7.5165 10.263498,11.067 0,4.8611 -2.977388,7.8029 -13.238119,13.0798 -5.094034,2.6198 -11.736881,6.4356 -14.761881,8.4796 -5.704564,3.8545 -15.0000004,13.1059 -15.0000004,14.9291 0,2.2276 -2.562811,0.8404 -7.052422,-3.8175 z"
         id="path4883"
         sodipodi:nodetypes="csscccsssssc" />
      <path
         id="path4885"
         d="m 178.98056,1558.4126 c 0,-1.0423 0.89308,-2.1169 2,-2.4063 1.85492,-0.4851 2,-1.3641 2,-12.1167 l 0,-11.5936 2.60283,0 2.60282,0 -0.35282,12.5809 c -0.31021,11.0613 -0.58728,12.7523 -2.29396,14 -2.86919,2.0976 -6.55887,1.8364 -6.55887,-0.4643 z m -115.34501,-1.9453 c -2.899879,-3.2044 -1.980573,-6.3808 3.825436,-13.2177 3.01423,-3.5495 6.83923,-8.9916 8.5,-12.0936 6.8969,-12.882 2.48065,-18.6652 -20.642892,-27.0323 -4.74866,-1.7182 -9.467238,-3.9574 -10.485729,-4.9759 -2.955552,-2.9555 -2.401128,-8.6373 1.398197,-14.3288 1.7875,-2.6778 3.968469,-6.2089 4.846599,-7.8471 0.878129,-1.6381 2.291785,-3.4867 3.141458,-4.108 1.124915,-0.8226 1.77824,-4.1114 2.403402,-12.0988 0.681103,-8.7021 1.168552,-10.9691 2.358541,-10.9691 1.197028,0 1.646723,2.1995 2.226419,10.8893 0.610907,9.1578 1.036027,11.1062 2.673471,12.2531 1.070879,0.7501 2.446834,2.8781 3.057674,4.729 1.07639,3.2615 1.34837,3.4034 8.82653,4.6046 7.69367,1.2357 22.25006,5.9775 24.769924,8.0688 1.87848,1.559 2.88145,-4.4785 2.11229,-12.7153 -0.86331,-9.245 -4.816104,-17.3518 -11.390144,-23.3601 -4.41111,-4.0315 -6.98153,-5.4365 -13.88194,-7.5879 -7.55249,-2.3548 -9.57311,-2.5837 -18.681342,-2.1162 -15.27632,0.7841 -30.249117,6.5305 -45.469519,17.4506 -8.2259204,5.9019 -12.2433624,6.8274 -12.2433624,2.8207 0,-1.8466 2.182472,-4.3714 8.716763,-10.0841 10.3917644,-9.0851 19.0763994,-14.424 29.8407194,-18.3444 31.528421,-11.483 61.105085,-2.4247 72.919635,22.3327 4.51743,9.4663 5.89976,17.2913 5.26664,29.8133 -1.3618,26.9338 -16.56241,51.3564 -41.184924,66.1712 -6.60153,3.972 -10.42153,4.4889 -12.903846,1.746 z m 69.34501,-18.6713 c 0,0 0.0875,-6.3566 0.39286,-14.5 0.70127,-0.6619 1.82143,-0.048 3.25,0.018 l 0.35714,15.3747 3.29761,-3.1961 c 1.4479,-1.4034 3.10329,-2.3497 5.27939,-3.8454 0.95755,-0.03 2.423,0.4623 2.423,1.5456 0,0.493 -1.59079,2.2931 -3.53506,4.0002 -1.68428,1.4788 -1.12247,1.3731 -3.82967,3.5984 1.56116,2.4265 2.23377,3.0442 5.27867,5.9421 3.64425,3.4683 3.96344,5.5777 0.83606,5.525 -1.45179,-0.024 -3.49166,-1.6273 -5.75,-4.5183 l -3.5,-4.4805 -0.30479,4.5184 c -0.24991,3.7048 -0.65504,4.5183 -2.25,4.5183 -1.83751,0 -1.94521,-0.8028 -1.94521,-14.5 l 0,-4e-4 z m 18,4.5006 0,-9.9994 c 0,0 2.16626,0.1042 3.25,0.094 0,0 0.22121,1.7247 5.24952,-0.2506 1.36418,-0.5359 2.08837,0.2797 2.31955,1.9049 0.26134,1.8374 -0.15572,2.25 -2.27427,2.25 -3.24297,0 -4.5448,3.0263 -4.5448,10.5651 0,4.7683 -0.24533,5.4349 -2,5.4349 -1.86666,0 -2,-0.6666 -2,-9.9994 l 0,5e-4 z m 14.3997,9.2341 c -2.32538,-1.5527 -3.42312,-5.0429 -2.41778,-7.6872 1.07708,-2.8329 4.51508,-4.5475 9.11836,-4.5475 2.66021,0 2.85841,-0.2087 1.89972,-2 -1.17112,-2.1882 -4.04618,-2.5808 -7.06574,-0.9648 -1.66506,0.8911 -1.93426,0.6978 -1.93426,-1.3887 0,-4.61 10.44727,-4.4163 12.9392,0.2399 0.58344,1.0902 1.0608,5.3867 1.0608,9.5479 0,6.899 -0.17623,7.5657 -2,7.5657 -1.1,0 -2,-0.4658 -2,-1.0352 0,-0.7136 -0.60093,-0.7136 -1.93426,0 -2.23912,1.1984 -6.07337,1.3333 -7.66604,0.2699 z m 8.56512,-5.169 c 1.83968,-3.4374 1.28741,-4.3661 -2.18357,-3.6719 -3.9307,0.7861 -5.2379,1.9738 -4.44542,4.039 0.85278,2.2223 5.37728,1.9718 6.62899,-0.3671 z m 9.03518,-20.5657 c 0,-1.8333 0.53333,-2.5 2,-2.5 1.46667,0 2,0.6667 2,2.5 0,1.8333 -0.53333,2.5 -2,2.5 -1.46667,0 -2,-0.6667 -2,-2.5 z m 201,-1.5 c 0,-1.3214 0.66667,-2 1.96482,-2 3.91553,0 4.13915,-3.1319 0.86345,-12.0925 -1.69043,-4.6241 -3.42453,-8.7912 -3.85355,-9.2602 -0.42902,-0.4689 -2.41485,0.6561 -4.41294,2.5 l -3.6329,3.3527 4.53556,5.1614 c 2.49456,2.8387 4.53556,5.4262 4.53556,5.75 0,0.3237 -1.08768,0.5886 -2.41706,0.5886 -1.61799,0 -3.59512,-1.4051 -5.98043,-4.25 l -3.56337,-4.25 -0.0196,4.25 c -0.0178,3.8615 -0.24813,4.25 -2.51957,4.25 l -2.5,0 0,-14.5 0,-14.5 5,0 c -0.0499,3.75 0,0.1536 0,7.6962 l 0,7.6961 3.29761,-3.1961 c 2.72607,-2.6422 4.08525,-3.1962 7.84174,-3.1962 4.46956,0 4.5647,0.069 5.79975,4.191 2.98459,9.9616 3.06197,10.0011 5.5093,2.809 1.71628,-5.0437 2.69799,-6.5716 4.38173,-6.8195 1.19345,-0.1758 2.52704,-0.2891 2.52704,0.1848 0,2.0531 -8.73676,24.2983 -10.13008,25.8847 -2.21447,2.5213 -7.22706,2.3479 -7.22706,-0.25 z m -251,-19.5634 0,-13.5633 c 0,0 2.86963,0.2027 4.62113,0.3133 2.52935,4.2587 2.92715,5.3338 5.32143,9.4875 3.04216,4.4758 3.79354,9.4068 4.0821,9.6913 5.53409,-10.5667 5.61942,-10.2706 10.19571,-19.3654 l 4.77963,0 0,13.5 0,13.5 -2.5,0 c -2.49226,0 -2.50016,-0.03 -2.5507,-9.75 l -0.0507,-9.75 -3.83987,9.5 c -3.25562,8.0545 -4.18283,9.5 -6.09391,9.5 -1.92754,0 -2.7763,-1.3761 -5.85943,-9.5 l -3.60539,-9.5 -0.28621,9.75 c -0.26203,8.9262 -0.45213,9.75 -2.25,9.75 -1.8552,0 -1.96379,-0.75 -1.96379,-13.5634 z m 34.45455,11.1089 c -1.96321,-1.9632 -2.45455,-3.4737 -2.45455,-7.5455 0,-6.6357 2.98509,-10 8.87276,-10 5.36021,0 6.94351,0.744 8.66423,4.0715 2.69327,5.2082 0.97333,13.7512 -3.08179,15.3073 -3.88061,1.4892 -9.54326,0.6241 -12.00065,-1.8333 z m 9.32294,-2.1022 c 4.80751,-3.3673 1.57167,-13.6411 -3.76311,-11.9479 -4.17961,1.3266 -5.02644,10.2274 -1.18623,12.4682 2.22442,1.298 2.3761,1.2821 4.94934,-0.5203 z m 10.22251,-5.4433 c 0,-5.9074 0.0847,-3.3779 0.20881,-9.8706 0.41237,-0.4339 1.10602,-0.1294 1.79119,-0.1294 1.1,0 2,0.54 2,1.2 0,0.9333 0.26667,0.9333 1.2,0 2.01232,-2.0123 5.8,-1.4899 5.8,0.8 0,1.2593 -0.66667,2 -1.8,2 -3.20855,0 -4.2,2.1718 -4.2,9.2 0,6.5867 -0.0784,6.8 -2.5,6.8 -2.5,0 -2.5,0 -2.5,-10 z m 13.53408,8.3912 c -2.06956,-2.0695 -1.94018,-6.7137 0.24204,-8.6886 0.97687,-0.884 3.67687,-1.9113 6,-2.2828 4.68203,-0.7487 5.29876,-1.7742 2.09739,-3.4875 -1.5616,-0.8357 -2.76952,-0.8451 -4.54706,-0.035 -3.30424,1.5055 -3.51198,1.4298 -3.146,-1.1471 0.27388,-1.9285 1.01355,-2.2942 5.17549,-2.5591 7.39596,-0.4708 8.64406,1.1632 8.64406,11.3166 l 0,8.1974 -6.46592,0.1102 c -4.59449,0.078 -6.90993,-0.3338 -8,-1.4239 l 0,-2e-4 z m 8.63718,-3.0462 c 2.73052,-2.4711 2.27818,-4.345 -1.04882,-4.345 -3.71428,0 -5.88793,2.3727 -4.12244,4.5 1.60455,1.9334 2.90679,1.8943 5.17126,-0.155 z m 11.39933,-4.095 c -1.5629,-4.8125 -3.0538,-9.3125 -3.31311,-10 -0.29594,-0.7846 0.42579,-1.25 1.9387,-1.25 2.10896,0 2.6999,0.8996 4.72868,7.1988 l 2.31852,7.1988 2.16485,-6.9488 c 1.74215,-5.592 2.59702,-7.0112 4.37831,-7.2683 1.2174,-0.1758 2.21346,0.013 2.21346,0.4202 0,0.4069 -1.4625,4.936 -3.25,10.0647 -2.95104,8.4671 -3.484,9.3253 -5.79388,9.3297 -2.31589,0 -2.79856,-0.7793 -5.38553,-8.7451 z m 16.09608,8.0833 c -0.36667,-0.3666 -0.66667,-1.4805 -0.66667,-2.4752 0,-1.5143 0.40541,-1.6545 2.49132,-0.8614 2.83328,1.0772 5.50868,0.3797 5.50868,-1.4361 0,-0.674 -1.6875,-2.3154 -3.75,-3.6476 -6.86175,-4.4319 -4.83958,-10.913 3.40499,-10.913 3.76354,0 4.34501,0.2844 4.34501,2.125 0,1.7935 -0.43632,2.0377 -2.7971,1.5656 -1.5384,-0.3077 -3.4509,-0.1304 -4.25,0.394 -1.63353,1.0719 -0.81893,1.9106 4.97223,5.1189 3.8625,2.1398 4.29502,6.8285 0.85236,9.2398 -2.22612,1.5592 -8.85784,2.143 -10.11082,0.89 z m 15.33333,-13.8333 0,-14.5 4.46429,0.1786 c 0.30725,3.5714 0.53571,-0.025 0.53571,7.5176 l 0,7.6961 3.29761,-3.1961 c 1.70434,-1.6519 2.71885,-2.7318 4.98102,-3.3031 0.60745,-0.057 1.73923,0.1126 3.07851,0.035 0,0.2551 -2.17281,2.7033 -4.39196,4.7857 l -4.03482,3.7861 4.53482,5.1614 c 2.49415,2.8387 4.53482,5.4262 4.53482,5.75 0,0.3237 -1.08768,0.5886 -2.41706,0.5886 -1.61799,0 -3.59512,-1.4051 -5.98043,-4.25 l -3.56337,-4.25 -0.0196,4.25 c -0.0178,3.8615 -0.24813,4.25 -2.51957,4.25 l -2.5,0 0,-14.5 3e-5,0 0,10e-5 z m 19.58889,11.4233 c -1.80325,-2.1431 -2.58889,-4.244 -2.58889,-6.9233 0,-2.6792 0.78564,-4.7802 2.58889,-6.9233 2.16117,-2.5684 3.30846,-3.0767 6.94424,-3.0767 6.61709,0 9.96687,3.3047 9.96687,9.8329 0,6.9991 -2.98671,10.1671 -9.58542,10.1671 -4.06172,0 -5.10575,-0.4385 -7.32569,-3.0767 z m 10.41111,-1.9233 c 1.11111,-1.1111 2,-3.3333 2,-5 0,-2.7499 -2.90065,-7 -4.77749,-7 -0.42763,0 -1.77763,0.7005 -3,1.5567 -1.64843,1.1546 -2.22251,2.5606 -2.22251,5.4433 0,2.8827 0.57408,4.2887 2.22251,5.4433 2.86015,2.0033 3.36998,1.9642 5.77749,-0.4433 z m 8.55577,4.0902 c -0.30924,-0.5003 -0.29751,-1.5996 0.0261,-2.4429 0.44923,-1.1706 1.15723,-1.3168 2.99456,-0.6182 2.7589,1.0489 5.42361,0.3274 5.42361,-1.4685 0,-0.674 -1.6875,-2.3154 -3.75,-3.6476 -6.86175,-4.4319 -4.83958,-10.913 3.40499,-10.913 3.75812,0 4.34501,0.2859 4.34501,2.1166 0,1.7576 -0.45558,2.0295 -2.68662,1.603 -6.11068,-1.1682 -6.98167,1.3887 -1.43671,4.2175 8.48386,4.3281 6.2139,12.0629 -3.54016,12.0629 -2.32016,0 -4.47149,-0.4094 -4.78074,-0.9098 l -4e-5,0 z m 16.44422,-13.5902 c 0,-6.5989 -0.16072,-8.9004 0.10374,-14.308 3.03438,0.3198 1.30894,-0.192 3.86056,-0.192 -0.12091,7.8571 0.0357,0.6667 0.0357,14.5 0,13.8333 -0.0919,14.5 -2,14.5 -1.90805,0 -2,-0.6667 -2,-14.5 z m 10.50659,12.0975 c -3.56656,-3.5666 -3.59417,-11.6008 -0.052,-15.1429 5.29831,-5.2984 14.54545,-1.8908 14.54545,5.3599 l 0,3.1855 -6.5,0 c -6.9068,0 -7.75026,0.7497 -4.5,4 2.25133,2.2513 3.70144,2.4442 7.50468,0.9982 2.39745,-0.9115 2.60607,-0.7988 2.3151,1.25 -0.2786,1.9619 -0.99493,2.2907 -5.5632,2.5538 -4.48785,0.2585 -5.60462,-0.059 -7.75,-2.2045 l -3e-5,0 z m 10.49342,-10.5261 c 0,-1.6002 -3.17292,-4.1852 -4.7519,-3.8713 -0.83003,0.1649 -2.18029,1.3124 -3.00059,2.5499 -1.47417,2.2239 -1.43788,2.25 3.13052,2.25 2.54208,0 4.62197,-0.4179 4.62197,-0.9286 z m 5,11.1641 c 0,-0.9704 2.27043,-4.5704 5.0454,-8 l 5.0454,-6.2355 -4.5454,0 c -3.87873,0 -4.5454,-0.2933 -4.5454,-2 0,-1.8222 0.66667,-2 7.5,-2 9.31882,0 9.58939,1.0058 2.56043,9.5181 l -4.93957,5.9819 4.93957,0.3023 c 4.12527,0.2524 4.93957,0.6233 4.93957,2.25 0,1.768 -0.73822,1.9477 -8,1.9477 -6.97738,0 -8,-0.2255 -8,-1.7645 z m 18.66667,1.0978 c -0.36667,-0.3666 -0.66667,-1.4805 -0.66667,-2.4752 0,-1.5143 0.40541,-1.6545 2.49132,-0.8614 2.83328,1.0772 5.50868,0.3797 5.50868,-1.4361 0,-0.674 -1.6875,-2.3154 -3.75,-3.6476 -6.86175,-4.4319 -4.83958,-10.913 3.40499,-10.913 3.76354,0 4.34501,0.2844 4.34501,2.125 0,1.7935 -0.43632,2.0377 -2.7971,1.5656 -1.5384,-0.3077 -3.4509,-0.1304 -4.25,0.394 -1.63353,1.0719 -0.81893,1.9106 4.97223,5.1189 3.8625,2.1398 4.29502,6.8285 0.85236,9.2398 -2.22612,1.5592 -8.85784,2.143 -10.11082,0.89 z m 37.33333,-20.9653 c 0,-1.9904 4.43863,-7.368 6.08156,-7.368 2.49939,0 2.42804,0.4653 -0.70025,4.5667 -2.29513,3.0091 -5.38131,4.6157 -5.38131,2.8013 z"
         style="fill:#0f2676;fill-opacity:1"
         sodipodi:nodetypes="cscccccsccssssssssssssssssssssssssscccccccsscsscccscccccssssccccssssssssscccscccsscccsscccsscccccccccccssssssccccccccccccccscccscccssscccscccssssssscccssssscccccccscccscccsssccccssssssssscccccccsccccssccccccccccsssccccsssccccsssssssccccccsccccccsssscccccscccccsscccssccccssssssssccccccc" />
    </g>
  </g>
</svg>
