<?xml version="1.0" encoding="UTF-8" standalone="no"?><!DOCTYPE svg PUBLIC "-//W3C//DTD SVG 1.1//EN" "http://www.w3.org/Graphics/SVG/1.1/DTD/svg11.dtd"><svg width="100%" height="100%" viewBox="0 0 1310 961" version="1.1" xmlns="http://www.w3.org/2000/svg" xmlns:xlink="http://www.w3.org/1999/xlink" xml:space="preserve" style="fill-rule:evenodd;clip-rule:evenodd;stroke-linejoin:round;stroke-miterlimit:1.41421;"><g><text x="114.528px" y="130.259px" style="font-family:'ArialMT', 'Arial', sans-serif;font-size:16px;fill:#074ea2;">Projekt</text><text x="114.528px" y="177.979px" style="font-family:'Arial-BoldMT', 'Arial', sans-serif;font-weight:700;font-size:40px;fill:#074ea2;">TVORBA</text><text x="294.544px" y="177.979px" style="font-family:'Arial-BoldMT', 'Arial', sans-serif;font-weight:700;font-size:40px;fill:#074ea2;">NOVÉHO SW ŘEŠENÍ PRO SNADNÉ</text><text x="114.528px" y="228.915px" style="font-family:'Arial-BoldMT', 'Arial', sans-serif;font-weight:700;font-size:40px;fill:#074ea2;">BUDOVÁNÍ FIREMNÍCH WEBŮ</text><text x="114.528px" y="274.751px" style="font-family:'Arial-BoldMT', 'Arial', sans-serif;font-weight:700;font-size:31px;fill:#074ea2;">je spoluﬁnancován Evropskou unií.</text><text x="114.528px" y="306.978px" style="font-family:'ArialMT', 'Arial', sans-serif;font-size:16px;fill:#030404;">Cílem projektu je tvorba nového SW řešení, díky kterému si zákazníci budou schopni sami rychle a jednoduše vybudovat své web</text><text x="1033.22px" y="306.978px" style="font-family:'ArialMT', 'Arial', sans-serif;font-size:16px;fill:#030404;">y</text><text x="1041.13px" y="306.978px" style="font-family:'ArialMT', 'Arial', sans-serif;font-size:16px;fill:#030404;">. Vše bude přístupné</text><text x="114.528px" y="327.352px" style="font-family:'ArialMT', 'Arial', sans-serif;font-size:16px;fill:#030404;">z webového hubu a zákazník si vše jednoduše a rychle nastaví ve svém cloudu.</text></g><g><text x="118.471px" y="726.44px" style="font-family:'ArialMT', 'Arial', sans-serif;font-size:26.29px;">EVROPSKÁ UNIE</text><text x="118.471px" y="757.988px" style="font-family:'ArialMT', 'Arial', sans-serif;font-size:26.29px;">Evropský fond pro regionální rozvoj</text><text x="118.471px" y="789.536px" style="font-family:'ArialMT', 'Arial', sans-serif;font-size:26.29px;">OP</text><text x="163.785px" y="789.536px" style="font-family:'ArialMT', 'Arial', sans-serif;font-size:26.29px;">Podnikání a inovace pro konkurenceschopn</text><text x="673.859px" y="789.536px" style="font-family:'ArialMT', 'Arial', sans-serif;font-size:26.29px;">o</text><text x="688.381px" y="789.536px" style="font-family:'ArialMT', 'Arial', sans-serif;font-size:26.29px;">st</text></g><clipPath id="_clip1"><rect x="59.528" y="430.973" width="1190.55" height="49.5"/></clipPath><g clip-path="url(#_clip1)"><rect x="59.528" y="430.973" width="1190.55" height="49.5" style="fill:#074ea2;"/></g><g><clipPath id="_clip2"><rect x="114.528" y="535.473" width="221.275" height="150.31"/></clipPath><g clip-path="url(#_clip2)"><rect x="114.416" y="535.054" width="221.279" height="150.305" style="fill:#fff;fill-rule:nonzero;"/><rect x="118.671" y="539.175" width="212.768" height="141.847" style="fill:#034ea2;fill-rule:nonzero;"/><path d="M220.521,570.081l4.491,-3.277l4.489,3.277l-1.708,-5.299l4.56,-3.277l-5.621,0l-1.72,-5.362l-1.721,5.368l-5.618,-0.006l4.557,3.277l-1.709,5.299Z" style="fill:#fcee21;fill-rule:nonzero;"/><path d="M197.288,576.323l4.489,-3.277l4.487,3.277l-1.705,-5.299l4.557,-3.276l-5.621,0l-1.721,-5.369l-1.72,5.374l-5.618,-0.005l4.557,3.276l-1.705,5.299Z" style="fill:#fcee21;fill-rule:nonzero;"/><path d="M184.777,579.417l-1.72,5.375l-5.619,-0.006l4.558,3.277l-1.709,5.298l4.49,-3.276l4.49,3.276l-1.709,-5.298l4.557,-3.277l-5.618,0l-1.72,-5.369Z" style="fill:#fcee21;fill-rule:nonzero;"/><path d="M178.54,613.29l4.488,3.276l-1.706,-5.299l4.556,-3.276l-5.617,0l-1.721,-5.369l-1.72,5.381l-5.621,-0.012l4.56,3.276l-1.708,5.299l4.489,-3.276Z" style="fill:#fcee21;fill-rule:nonzero;"/><path d="M186.497,631.266l-1.72,-5.369l-1.72,5.374l-5.619,-0.005l4.558,3.276l-1.709,5.299l4.49,-3.283l4.49,3.283l-1.709,-5.299l4.557,-3.276l-5.618,0Z" style="fill:#fcee21;fill-rule:nonzero;"/><path d="M203.53,648.299l-1.72,-5.364l-1.718,5.37l-5.62,-0.006l4.557,3.276l-1.706,5.298l4.49,-3.276l4.486,3.276l-1.705,-5.298l4.557,-3.276l-5.621,0Z" style="fill:#fcee21;fill-rule:nonzero;"/><path d="M226.735,654.47l-1.72,-5.368l-1.718,5.374l-5.621,-0.006l4.557,3.277l-1.706,5.298l4.49,-3.276l4.487,3.276l-1.708,-5.298l4.56,-3.277l-5.621,0Z" style="fill:#fcee21;fill-rule:nonzero;"/><path d="M249.939,648.299l-1.717,-5.364l-1.724,5.37l-5.614,-0.006l4.553,3.276l-1.705,5.298l4.49,-3.276l4.49,3.276l-1.712,-5.298l4.56,-3.276l-5.621,0Z" style="fill:#fcee21;fill-rule:nonzero;"/><path d="M266.978,631.266l-1.724,-5.369l-1.723,5.374l-5.615,-0.005l4.56,3.276l-1.711,5.299l4.489,-3.283l4.49,3.283l-1.712,-5.299l4.561,-3.276l-5.615,0Z" style="fill:#fcee21;fill-rule:nonzero;"/><path d="M278.764,607.926l-5.62,0l-1.724,-5.368l-1.717,5.374l-5.621,-0.006l4.56,3.277l-1.706,5.299l4.484,-3.283l4.49,3.283l-1.705,-5.299l4.559,-3.277Z" style="fill:#fcee21;fill-rule:nonzero;"/><path d="M260.765,593.291l4.489,-3.277l4.49,3.277l-1.712,-5.298l4.561,-3.271l-5.615,0l-1.724,-5.369l-1.723,5.375l-5.615,-0.006l4.56,3.271l-1.711,5.298Z" style="fill:#fcee21;fill-rule:nonzero;"/><path d="M248.286,562.385l-1.717,5.374l-5.621,-0.011l4.554,3.282l-1.705,5.299l4.495,-3.283l4.484,3.283l-1.706,-5.299l4.56,-3.282l-5.627,0l-1.717,-5.363Z" style="fill:#fcee21;fill-rule:nonzero;"/></g></g><g><clipPath id="_clip3"><rect x="802.441" y="539.582" width="300.043" height="141.271"/></clipPath><g clip-path="url(#_clip3)"><path d="M813.789,645.687l-7.283,-16.824l-4.065,21.181l2.285,0l2.58,-13.556l0.053,0l6.43,14.382l6.462,-14.382l0.053,0l2.577,13.556l2.285,0l-4.068,-21.181l-7.309,16.824Z" style="fill:#004b8d;fill-rule:nonzero;"/><rect x="828.304" y="630.002" width="2.232" height="20.042" style="fill:#004b8d;fill-rule:nonzero;"/><path d="M835.271,629.155l15.626,16.372l0,-15.522l2.234,0l0,20.942l-15.628,-16.345l0,15.442l-2.232,0l0,-20.889Z" style="fill:#004b8d;fill-rule:nonzero;"/><rect x="857.89" y="630.002" width="2.232" height="20.042" style="fill:#004b8d;fill-rule:nonzero;"/><path d="M873.811,633.911c-0.797,-1.382 -1.754,-2.182 -3.457,-2.182c-1.783,0 -3.324,1.276 -3.324,3.112c0,1.727 1.783,2.524 3.135,3.138l1.331,0.584c2.604,1.14 4.815,2.447 4.815,5.633c0,3.51 -2.819,6.194 -6.302,6.194c-3.215,0 -5.607,-2.076 -6.244,-5.184l2.178,-0.614c0.293,2.046 1.858,3.72 4.012,3.72c2.153,0 4.119,-1.645 4.119,-3.903c0,-2.341 -1.831,-3.138 -3.694,-3.989l-1.222,-0.534c-2.338,-1.06 -4.357,-2.258 -4.357,-5.13c0,-3.109 2.63,-5.102 5.606,-5.102c2.237,0 4.124,1.14 5.184,3.112l-1.78,1.145Z" style="fill:#004b8d;fill-rule:nonzero;"/><path d="M884.099,650.044l-2.232,0l0,-17.967l-4.839,0l0,-2.072l11.962,0l0,2.072l-4.891,0l0,17.967Z" style="fill:#004b8d;fill-rule:nonzero;"/><path d="M891.807,630.002l10.394,0l0,2.075l-8.163,0l0,5.955l7.924,0l0,2.075l-7.924,0l0,7.862l8.163,0l0,2.075l-10.394,0l0,-20.042Z" style="fill:#004b8d;fill-rule:nonzero;"/><path d="M908.764,639.281l0.69,0c2.527,0 5.078,-0.479 5.078,-3.59c0,-3.292 -2.418,-3.614 -5.104,-3.614l-0.664,0l0,7.204Zm0,10.763l-2.232,0l0,-20.039l2.896,0c3.802,0 7.336,1.01 7.336,5.529c0,3.08 -1.94,5.258 -5.025,5.524l6.38,8.986l-2.74,0l-6.06,-8.8l-0.558,0l0,8.8l0.003,0Z" style="fill:#004b8d;fill-rule:nonzero;"/><path d="M930.559,633.911c-0.797,-1.382 -1.754,-2.182 -3.454,-2.182c-1.783,0 -3.324,1.276 -3.324,3.112c0,1.727 1.783,2.524 3.138,3.138l1.328,0.584c2.604,1.14 4.809,2.447 4.809,5.633c0,3.51 -2.819,6.194 -6.299,6.194c-3.215,0 -5.607,-2.076 -6.244,-5.184l2.179,-0.614c0.294,2.046 1.862,3.72 4.014,3.72c2.152,0 4.119,-1.645 4.119,-3.903c0,-2.341 -1.834,-3.138 -3.694,-3.989l-1.219,-0.534c-2.341,-1.06 -4.36,-2.258 -4.36,-5.13c0,-3.109 2.627,-5.102 5.606,-5.102c2.234,0 4.118,1.14 5.184,3.112l-1.783,1.145Z" style="fill:#004b8d;fill-rule:nonzero;"/><path d="M940.847,650.044l-2.235,0l0,-17.967l-4.835,0l0,-2.072l11.959,0l0,2.072l-4.889,0l0,17.967Z" style="fill:#004b8d;fill-rule:nonzero;"/><path d="M953.502,645.288l5.71,-15.283l2.423,0l-8.133,21.235l-8.136,-21.235l2.416,0l5.72,15.283Z" style="fill:#004b8d;fill-rule:nonzero;"/><path d="M964.906,640.025c0,4.519 3.667,8.292 8.213,8.292c4.541,0 8.207,-3.776 8.207,-8.292c0,-4.547 -3.616,-8.293 -8.207,-8.293c-4.602,0 -8.213,3.746 -8.213,8.293m18.652,0.026c0,5.768 -4.732,10.341 -10.439,10.341c-5.718,0 -10.448,-4.573 -10.448,-10.341c0,-5.744 4.73,-10.391 10.448,-10.391c5.707,0 10.439,4.649 10.439,10.391" style="fill:#004b8d;fill-rule:nonzero;"/><path d="M806.134,669.177l1.491,0c2.471,0 4.573,-0.746 4.573,-3.616c0,-3.268 -2.634,-3.507 -5.237,-3.507l-0.827,0l0,7.123Zm0,10.843l-2.232,0l0,-20.041l3.295,0c1.727,0 3.51,0.05 4.971,1.062c1.491,1.039 2.261,2.793 2.261,4.568c0,1.623 -0.667,3.271 -1.915,4.309c-1.358,1.116 -3.085,1.329 -4.759,1.329l-1.621,0l0,8.773Z" style="fill:#004b8d;fill-rule:nonzero;"/><path d="M820.036,669.254l0.693,0c2.527,0 5.078,-0.478 5.078,-3.589c0,-3.292 -2.421,-3.611 -5.104,-3.611l-0.667,0l0,7.2Zm0,10.766l-2.23,0l0,-20.041l2.897,0c3.802,0 7.336,1.007 7.336,5.526c0,3.082 -1.943,5.264 -5.028,5.529l6.38,8.984l-2.737,0l-6.06,-8.8l-0.558,0l0,8.802Z" style="fill:#004b8d;fill-rule:nonzero;"/><path d="M838.114,657.059c0,0.611 0.534,1.139 1.14,1.139c0.614,0 1.116,-0.531 1.116,-1.139c0,-0.614 -0.502,-1.119 -1.116,-1.119c-0.609,0 -1.14,0.505 -1.14,1.119m3.454,0c0,1.299 -1.01,2.335 -2.314,2.335c-1.3,0 -2.338,-1.036 -2.338,-2.335c0,-1.278 1.038,-2.315 2.338,-2.315c1.278,-0.002 2.314,1.037 2.314,2.315m-7.309,14.855c0,1.488 -0.051,3.191 0.876,4.466c0.877,1.223 2.578,1.913 4.039,1.913c1.437,0 3.005,-0.667 3.935,-1.783c1.06,-1.278 0.98,-3.031 0.98,-4.599l0,-11.932l2.235,0l0,12.546c0,2.181 -0.159,3.903 -1.756,5.556c-1.379,1.485 -3.375,2.282 -5.394,2.282c-1.886,0 -3.829,-0.715 -5.184,-2.046c-1.756,-1.674 -1.966,-3.507 -1.966,-5.792l0,-12.546l2.235,0l0,11.935Z" style="fill:#004b8d;fill-rule:nonzero;"/><path d="M860.042,675.663l-7.285,-16.827l-4.066,21.184l2.285,0l2.578,-13.558l0.053,0l6.435,14.382l6.459,-14.382l0.053,0l2.578,13.558l2.285,0l-4.068,-21.184l-7.307,16.827Z" style="fill:#004b8d;fill-rule:nonzero;"/><path d="M871.364,659.979l2.58,0l5.104,8.932l5.101,-8.932l2.577,0l-6.562,11.43l0,8.611l-2.235,0l0,-8.611l-6.565,-11.43Z" style="fill:#004b8d;fill-rule:nonzero;"/><path d="M897.229,663.884c-0.797,-1.381 -1.756,-2.181 -3.456,-2.181c-1.78,0 -3.322,1.278 -3.322,3.114c0,1.727 1.781,2.527 3.136,3.135l1.328,0.585c2.607,1.14 4.812,2.447 4.812,5.633c0,3.51 -2.819,6.193 -6.302,6.193c-3.218,0 -5.607,-2.072 -6.244,-5.181l2.178,-0.616c0.293,2.045 1.86,3.722 4.015,3.722c2.155,0 4.121,-1.647 4.121,-3.906c0,-2.341 -1.836,-3.138 -3.698,-3.985l-1.223,-0.537c-2.338,-1.06 -4.357,-2.258 -4.357,-5.125c0,-3.112 2.63,-5.107 5.609,-5.107c2.232,0 4.121,1.142 5.181,3.111l-1.778,1.145Z" style="fill:#004b8d;fill-rule:nonzero;"/><path d="M905.761,677.945l5.529,0l0,2.075l-7.761,0l0,-20.041l2.232,0l0,17.966Z" style="fill:#004b8d;fill-rule:nonzero;"/><path d="M915.544,671.914c0,1.488 -0.056,3.191 0.877,4.466c0.877,1.223 2.577,1.913 4.039,1.913c1.434,0 3.002,-0.667 3.929,-1.783c1.063,-1.278 0.983,-3.031 0.983,-4.599l0,-11.932l2.235,0l0,12.546c0,2.181 -0.159,3.903 -1.754,5.556c-1.381,1.485 -3.374,2.282 -5.396,2.282c-1.887,0 -3.826,-0.715 -5.184,-2.046c-1.756,-1.674 -1.966,-3.507 -1.966,-5.792l0,-12.546l2.235,0l0,11.935l0.002,0Z" style="fill:#004b8d;fill-rule:nonzero;"/><path d="M948.156,664.232l-3.427,8.027l6.778,0l-3.351,-8.027Zm-4.333,10.1l-2.421,5.688l-2.444,0l9.249,-20.998l9.012,20.998l-2.471,0l-2.365,-5.688l-8.56,0Z" style="fill:#004b8d;fill-rule:nonzero;"/><path d="M969.877,669.998c0,4.522 3.667,8.295 8.208,8.295c4.546,0 8.212,-3.775 8.212,-8.295c0,-4.543 -3.616,-8.292 -8.212,-8.292c-4.594,0 -8.208,3.749 -8.208,8.292m18.655,0.027c0,5.765 -4.732,10.341 -10.447,10.341c-5.708,0 -10.44,-4.576 -10.44,-10.341c0,-5.742 4.732,-10.392 10.44,-10.392c5.712,0.003 10.447,4.653 10.447,10.392" style="fill:#004b8d;fill-rule:nonzero;"/><path d="M994.327,677.945l2.232,0c2.5,0 5.13,-0.608 5.13,-3.669c0,-3.106 -2.978,-3.56 -5.425,-3.56l-1.94,0l0,7.229l0.003,0Zm0,-9.142l0.85,0c2.527,0 4.679,-0.29 4.679,-3.404c0,-3.029 -1.916,-3.348 -4.652,-3.348l-0.874,0l0,6.752l-0.003,0Zm-2.229,-8.824l3.292,0c3.645,0 6.695,1.328 6.695,5.42c0,1.621 -0.608,3.002 -1.966,3.911c2.391,0.582 3.8,2.737 3.8,5.125c0,3.989 -3.215,5.585 -7.174,5.585l-4.65,0l0,-20.041l0.003,0Z" style="fill:#004b8d;fill-rule:nonzero;"/><path d="M1023,664.365c-1.592,-1.647 -3.8,-2.659 -6.111,-2.659c-4.467,0 -8.08,3.882 -8.08,8.292c0,4.416 3.64,8.295 8.133,8.295c2.258,0 4.466,-1.062 6.058,-2.657l0,2.761c-1.725,1.254 -3.85,1.969 -5.981,1.969c-5.659,0 -10.445,-4.599 -10.445,-10.285c0,-5.742 4.703,-10.445 10.445,-10.445c2.235,0 4.201,0.635 5.981,1.963l0,2.766Z" style="fill:#004b8d;fill-rule:nonzero;"/><path d="M1039.25,668.112l0,-8.133l2.232,0l0,20.041l-2.232,0l0,-9.833l-10.266,0l0,9.833l-2.232,0l0,-20.041l2.232,0l0,8.133l10.266,0Z" style="fill:#004b8d;fill-rule:nonzero;"/><path d="M1047.12,669.998c0,4.522 3.667,8.295 8.211,8.295c4.546,0 8.212,-3.775 8.212,-8.295c0,-4.543 -3.613,-8.292 -8.212,-8.292c-4.594,0 -8.211,3.749 -8.211,8.292m18.655,0.027c0,5.765 -4.729,10.341 -10.444,10.341c-5.713,0 -10.442,-4.576 -10.442,-10.341c0,-5.742 4.729,-10.392 10.442,-10.392c5.715,0.003 10.444,4.653 10.444,10.392" style="fill:#004b8d;fill-rule:nonzero;"/><path d="M1073.2,677.945c2.447,0 4.491,-0.342 6.327,-2.072c1.647,-1.541 2.5,-3.64 2.5,-5.875c0,-2.285 -0.88,-4.49 -2.609,-6.005c-1.834,-1.62 -3.85,-1.942 -6.218,-1.942l-1.623,0l0,15.894l1.623,0Zm-3.852,-17.966l3.773,0c3.005,0 5.449,0.398 7.814,2.418c2.285,1.966 3.324,4.652 3.324,7.628c0,2.925 -1.06,5.502 -3.271,7.471c-2.389,2.126 -4.783,2.524 -7.923,2.524l-3.717,0l0,-20.041Z" style="fill:#004b8d;fill-rule:nonzero;"/><path d="M1090.08,671.914c0,1.488 -0.054,3.191 0.876,4.466c0.874,1.223 2.578,1.913 4.039,1.913c1.437,0 3.002,-0.667 3.938,-1.783c1.06,-1.278 0.98,-3.031 0.98,-4.599l0,-11.93l2.235,0l0,12.544c0,2.181 -0.16,3.903 -1.757,5.556c-1.381,1.485 -3.374,2.282 -5.396,2.282c-1.886,0 -3.826,-0.715 -5.181,-2.046c-1.756,-1.674 -1.969,-3.507 -1.969,-5.792l0,-12.544l2.235,0l0,11.933Z" style="fill:#004b8d;fill-rule:nonzero;"/><path d="M943.172,606.552c-0.428,-19.543 -13.795,-38.033 -26.589,-48.164c-14.935,-11.829 -27.03,-16.574 -40.976,-18.705c13.043,2.63 25.762,6.616 41.93,20.334c10.174,8.633 23.235,22.792 25.635,46.535" style="fill:#0096d6;fill-rule:nonzero;"/><path d="M819.204,565.82c-4.397,5.537 -8.388,12.873 -11.292,20.464c-3.298,8.617 -4.366,17.462 -4.095,25.667l0.779,0c-0.056,-7.679 1.017,-15.453 3.388,-22.643c6.273,-19.003 17.366,-33.08 37.081,-43.695c-10.822,5.856 -18.868,11.779 -25.861,20.207" style="fill:#b5121b;fill-rule:nonzero;"/><path d="M920.949,558.813c-3.085,-2.497 -9.659,-6.863 -29.985,-10.535c-20.639,-3.73 -38.813,-3.177 -42.642,-3.919l-1.382,0.548c2.99,1.222 14.638,0.385 29.506,2.189c14.861,1.801 37.39,5.471 46.001,13.16l-1.498,-1.443Z" style="fill:#e31b23;fill-rule:nonzero;"/><path d="M934.765,576.759c-3.473,-4.076 -15.955,-8.851 -57.25,-10.076c-41.931,-1.243 -54.976,0.941 -58.707,-0.305c0,0 0.957,-1.214 1.283,-1.541c0.006,0.94 26.39,-0.688 46.378,-0.261c19.479,0.418 59.934,1.672 67.193,10.251c0.505,0.818 1.103,1.932 1.103,1.932" style="fill-rule:nonzero;"/><path d="M897.944,544.317c-0.117,-0.053 -0.202,-0.085 -0.202,-0.085c0,0 0.083,0.032 0.202,0.085" style="fill:#b5121b;fill-rule:nonzero;"/><path d="M899.74,545.077c-0.419,-0.184 -1.379,-0.59 -1.793,-0.763c0.47,0.207 1.666,0.824 1.666,1.78c0,5.054 -16.335,12.191 -49.104,31.225c-23.464,13.639 -38.266,25.237 -43.647,34.637l1.621,0c9.895,-14.406 37.881,-30.04 56.148,-40.506c25.464,-14.592 36.738,-20.493 36.738,-24.492c0,-0.943 -1.095,-1.645 -1.629,-1.881" style="fill:#b5121b;fill-rule:nonzero;"/><path d="M835.709,611.095c0,0.284 0.008,0.571 0.011,0.856l1.953,0c-0.051,-1.661 -0.088,-3.324 -0.088,-4.99c0,-31.727 9.624,-59.889 21.118,-65.806c0,0 -0.595,0.027 -1.185,0.375c-11.226,6.6 -21.809,29.373 -21.809,69.565" style="fill:#b9e0f7;fill-rule:nonzero;"/><path d="M810.611,596.418c-1.27,4.961 -2.046,10.2 -2.285,15.533l1.039,0c0.47,-6.983 1.791,-15.244 4.722,-23.889c6.026,-17.409 19.723,-37.584 36.86,-44.558c-18.466,7.381 -34.118,28.648 -40.336,52.914" style="fill:#13b5ea;fill-rule:nonzero;"/><path d="M850.947,543.506c1.175,-0.467 2.357,-0.884 3.55,-1.238c-1.198,0.346 -2.381,0.765 -3.55,1.238" style="fill:#13b5ea;fill-rule:nonzero;"/><path d="M896.725,543.865c-4.613,-1.007 -16.447,0.252 -31.698,2.963c-15.374,2.731 -35.485,8.622 -40.764,13.585c3.048,-3.25 9.012,-7.724 34.642,-13.256c21.07,-4.546 32.721,-4.697 35.856,-3.948c0.904,0.26 1.964,0.656 1.964,0.656" style="fill:#13b5ea;fill-rule:nonzero;"/><path d="M906.399,548.188c8.141,4.804 14.953,12.084 14.953,25.962c0,10.636 -3.884,22.47 -12.081,37.801l2.338,0c6.544,-12.65 11.284,-25.191 11.284,-35.365c0,-12.355 -4.19,-21.771 -16.494,-28.398" style="fill:#0096d6;fill-rule:nonzero;"/><path d="M807.083,588.861c0.141,-0.465 0.25,-0.797 0.25,-0.797c0,0 -0.147,0.29 -0.25,0.797" style="fill-rule:nonzero;"/><path d="M809.195,595.071c-2.404,-2.694 -2.359,-5.038 -2.115,-6.21c-0.196,0.662 -0.47,1.605 -0.608,2.339c-0.109,3.106 0.85,7.455 12.955,13.359c5.389,2.628 11.989,5.064 19.25,7.392l7.764,0c-18.753,-5.591 -31.565,-10.519 -37.246,-16.88" style="fill-rule:nonzero;"/><path d="M837.928,549.554c0,0 -2.458,1.435 -4.246,2.819c-5.178,4.009 -12.137,11.845 -12.137,23.466c0,7.961 2.439,19.519 13.136,36.114l3.808,0c-9.93,-14.616 -14.837,-27.221 -14.837,-37.811c0,-12.953 7.7,-20.741 14.276,-24.588" style="fill:#0096d6;fill-rule:nonzero;"/><path d="M913.918,552.995c1.023,0.826 2.399,2.144 2.399,4.012c0,7.033 -14.913,17.778 -45.971,37.192c-10.814,6.762 -19.712,12.618 -27,17.754l4.214,0c6.379,-4.413 13.904,-9.342 22.786,-14.876c44.266,-27.569 47.433,-34.345 47.433,-39.024c0,-2.128 -1.565,-3.592 -3.861,-5.058" style="fill:#004b8d;fill-rule:nonzero;"/><path d="M858.908,541.11c1.296,-0.152 1.968,0.021 4.429,0.536c6.571,1.372 24.755,5.429 42.174,13.078c13.131,5.766 25.909,14.656 30.136,23.709c-2.413,-5.211 -9.799,-17.473 -38.683,-28.05c-18.039,-6.608 -30.558,-8.729 -36.587,-9.52c-0.003,0 -1.148,0.14 -1.469,0.247" style="fill:#b5121b;fill-rule:nonzero;"/><path d="M866.812,539.914c4.289,-0.122 17.305,4.599 34.557,22.484c13.203,13.686 25.042,30.932 30.022,49.558l1.982,0c-2.681,-11.069 -8.139,-22.685 -17.095,-35.11c-14.295,-19.829 -38.139,-37.708 -49.466,-36.932" style="fill:#0096d6;fill-rule:nonzero;"/><path d="M851.495,554.49c-4.826,10.756 -11.481,32.36 -12.632,57.463l5.883,0c0.993,-20.488 5.667,-40.883 9.055,-52.499c3.313,-11.38 6.977,-18.897 9.212,-19.072c-0.367,0.04 -1.199,0.103 -1.693,0.281c-3.066,1.305 -6.701,6.871 -9.825,13.827" style="fill-rule:nonzero;"/><path d="M922.54,560.373c-3.281,-2.747 -14.6,-3.531 -39.642,-2.322c-21.45,1.036 -60.094,6.536 -65.82,10.686c0,0 0.938,-1.249 1.446,-1.836c9.719,-5.199 49.006,-9.212 57.806,-9.884c15.216,-1.156 39.432,-2 44.858,1.961c0.73,0.601 1.352,1.395 1.352,1.395" style="fill-rule:nonzero;"/><path d="M859.614,554.238c-2.898,-5.596 -3.111,-8.463 -3.111,-9.759c0,-0.773 0.3,-2.867 2.402,-3.369c-3.056,0.645 -4.626,2.505 -4.626,5.303c0,4.004 1.145,8.766 9.228,23.007c6.058,10.681 16.439,26.105 25.712,42.533l5.76,0c-3.616,-6.525 -7.99,-13.779 -13.282,-21.893c-3.481,-5.344 -16.259,-24.583 -22.083,-35.822" style="fill:#e31b23;fill-rule:nonzero;"/><path d="M870.03,588.513c-46.803,-12.397 -50.794,-17.544 -50.794,-21.261c0,-0.622 0.109,-1.35 1.182,-2.742c-0.536,0.473 -1.61,1.868 -1.61,1.868c-0.385,0.643 -0.808,1.589 -0.808,2.383c0,5.939 9.467,10.554 52.054,22.183c28.642,7.828 48.596,14.513 60.016,21.007l4.065,0c-12.445,-8.875 -37.91,-16.498 -64.105,-23.438" style="fill:#13b5ea;fill-rule:nonzero;"/><path d="M891.373,543.684c-8,-3.483 -15.814,-4.267 -19.114,-4.075c16.088,0.6 33.337,12.057 46.474,28.204c10.864,13.354 17.366,29.001 19.255,44.14l2.511,0c-2.03,-26.891 -21.79,-56.365 -49.126,-68.269" style="fill:#004b8d;fill-rule:nonzero;"/><path d="M878.28,539.792c2.396,0.369 7.043,1.126 7.043,6.337c0,4.288 -2.981,11.948 -26.415,42.278c-6.938,8.981 -12.387,16.763 -16.681,23.544l2.862,0c4.237,-6.542 9.086,-13.362 14.342,-20.374c19.093,-25.438 27.402,-37.254 27.402,-45.182c0,-5.086 -5.304,-6.361 -8.553,-6.603" style="fill-rule:nonzero;"/><path d="M935.092,588.001c-2.912,1.681 -12.135,5.449 -38.001,13.104c-10.139,2.994 -23.663,7.001 -36.552,10.851l23.536,0c12.134,-3.595 24.683,-7.4 30.723,-9.52c10.274,-3.606 18.468,-6.34 22.071,-8.55c2.307,-1.416 3.569,-2.229 3.473,-3.646c-0.555,-1.883 -1.873,-5.446 -1.873,-5.446c0.069,1.224 -0.763,1.705 -3.377,3.207" style="fill:#13b5ea;fill-rule:nonzero;"/></g></g></svg>